<?xml version="1.0" standalone="no"?><!DOCTYPE svg PUBLIC "-//W3C//DTD SVG 1.1//EN" "http://www.w3.org/Graphics/SVG/1.1/DTD/svg11.dtd"><svg t="1754384143247" class="icon" viewBox="0 0 1024 1024" version="1.1" xmlns="http://www.w3.org/2000/svg" p-id="3034" xmlns:xlink="http://www.w3.org/1999/xlink" width="200" height="200"><path d="M550.514 282.629l-0.615 0.538-5.137 5.137-20.829 20.82-20.828-20.82-5.137-5.128-0.573-0.59c-9.29-7.922-21.086-12.307-33.29-12.316-28.321 0-51.28 22.96-51.28 51.281 0 15.538 6.94 29.427 17.854 38.837l78.189 85.918c7.572 8.32 20.455 8.927 28.775 1.355 0.473-0.43 0.925-0.882 1.356-1.355l78.189-85.918a51.144 51.144 0 0 0 17.854-38.854c0-28.322-22.959-51.281-51.28-51.281-12.71 0.017-24.29 4.718-33.248 12.376z" fill="#515151" p-id="3035"></path><path d="M215.589 407.302C247.751 198.921 345.541 91.06 506.864 91.06c110.781 0 194.164 33.63 248.807 94.48 45.988 51.212 68.883 119.343 68.883 189.707 0 62.591-28.172 132.922-83.704 211.385-33.857 47.838-34.995 111.521-2.868 160.538l83.239 127c6.167 9.41 3.539 22.036-5.87 28.203-9.41 6.167-22.037 3.539-28.204-5.87l-83.239-127c-41.306-63.022-39.843-144.9 3.688-206.407 51.083-72.177 76.218-134.925 76.218-187.85 0-60.844-19.625-119.245-58.455-162.486-46.531-51.816-118.79-80.96-218.495-80.96-69.924 0-124.788 22.95-166.1 69.049-42.305 47.208-71.037 119.405-85.55 216.879l-0.655 4.4-72.028 110.44c-6.07 9.307-3.446 21.773 5.862 27.843a20.12 20.12 0 0 0 4.398 2.157c37.67 13.065 59.718 52.135 51.429 91.135l-2.009 9.451-3.524 25.744c-3.995 29.19 13.405 57.075 41.381 66.314l66.226 21.872a142.59 142.59 0 0 1 90.55 90.29l6.995 20.974c3.559 10.672-2.208 22.21-12.88 25.768-10.672 3.559-22.209-2.208-25.768-12.88l-6.994-20.974a101.85 101.85 0 0 0-64.68-64.493l-66.225-21.872c-46.627-15.399-75.628-61.874-68.968-110.524l3.726-27.226 2.32-10.914c4.018-18.904-6.669-37.842-24.928-44.174a60.86 60.86 0 0 1-13.305-6.524c-28.153-18.361-36.091-56.069-17.73-84.222l67.182-103.01z" fill="#515151" p-id="3036"></path></svg>