<?xml version="1.0" standalone="no"?><!DOCTYPE svg PUBLIC "-//W3C//DTD SVG 1.1//EN" "http://www.w3.org/Graphics/SVG/1.1/DTD/svg11.dtd"><svg t="1754383887738" class="icon" viewBox="0 0 1024 1024" version="1.1" xmlns="http://www.w3.org/2000/svg" p-id="2360" xmlns:xlink="http://www.w3.org/1999/xlink" width="200" height="200"><path d="M699.733333 324.266667c-29.866667-145.066667-162.133333-251.733333-311.466666-251.733334C213.333333 72.533333 72.533333 213.333333 72.533333 388.266667c0 153.6 106.666667 281.6 251.733334 311.466666 29.866667 145.066667 162.133333 251.733333 311.466666 251.733334 174.933333 0 320-145.066667 320-320-4.266667-149.333333-110.933333-277.333333-256-307.2zM136.533333 388.266667c0-140.8 115.2-256 256-256 128 0 234.666667 93.866667 251.733334 221.866666 0 8.533333 4.266667 21.333333 4.266666 34.133334 0 42.666667-12.8 85.333333-29.866666 119.466666-42.666667 81.066667-128 132.266667-221.866667 132.266667-12.8 0-21.333333 0-34.133333-4.266667-132.266667-12.8-226.133333-119.466667-226.133334-247.466666z m499.2 499.2c-115.2 0-213.333333-76.8-243.2-183.466667h29.866667c4.266667 0 12.8 0 17.066667-4.266667h12.8l38.4 38.4c4.266667 4.266667 12.8 8.533333 21.333333 8.533334s17.066667-4.266667 21.333333-8.533334c12.8-12.8 12.8-34.133333 0-46.933333l-12.8-12.8c4.266667 0 4.266667-4.266667 8.533334-4.266667 4.266667-4.266667 8.533333-4.266667 12.8-8.533333 4.266667-4.266667 8.533333-4.266667 12.8-8.533333 4.266667-4.266667 8.533333-4.266667 12.8-8.533334 4.266667-4.266667 8.533333-4.266667 12.8-8.533333 4.266667-4.266667 8.533333-4.266667 12.8-8.533333l38.4 38.4c4.266667 4.266667 12.8 8.533333 21.333333 8.533333s17.066667-4.266667 21.333333-8.533333c12.8-12.8 12.8-34.133333 0-46.933334l-38.4-38.4 8.533334-8.533333c4.266667-4.266667 8.533333-8.533333 8.533333-12.8 4.266667-4.266667 4.266667-8.533333 8.533333-12.8 4.266667-4.266667 4.266667-8.533333 8.533334-12.8 4.266667-4.266667 4.266667-8.533333 4.266666-12.8 0-4.266667 4.266667-4.266667 4.266667-8.533333l12.8 12.8c4.266667 4.266667 12.8 8.533333 21.333333 8.533333s17.066667-4.266667 21.333334-8.533333c12.8-12.8 12.8-34.133333 0-46.933334l-38.4-38.4v-12.8c0-4.266667 0-12.8 4.266666-17.066666v-12.8V384c106.666667 29.866667 183.466667 132.266667 183.466667 243.2 4.266667 149.333333-106.666667 260.266667-247.466667 260.266667z" p-id="2361" fill="#515151"></path></svg>